# xmcd
#
# Track frame offsets:
#	150
#	14197
#	29475
#	44865
#	58985
#	71637
#	85070
#	96512
#	107877
#	119200
#	130145
#	143182
#	154537
#	168237
#	181710
#	193360
#	206777
#	219947
#	234232
#	248280
#	263162
#	274465
#	286005
#
# Disc length: 3961 seconds
#
# Revision: 0
# Processed by: cddbd v1.5.1PL0 Copyright (c) Steve Scherf et al.
# Submitted via: dBpowerAMP V4.0
#
DISCID=640f7717
DTITLE=johnnie temple - complete document records Vol 1 - 1935-38
DYEAR=1900
DGENRE=Blues
TTITLE0=lead pencil blues
TTITLE1=jacksonville blues
TTITLE2=big boat whistle
TTITLE3=evil devil blues
TTITLE4=new vicksburg blues
TTITLE5=louise louise blues
TTITLE6=snapping cat
TTITLE7=so lonely and blue
TTITLE8=new louise louise blues
TTITLE9=peepin through the keyhole
TTITLE10=pimple blues
TTITLE11=east st. louis blues
TTITLE12=gimme some of that yum yum yum
TTITLE13=hoodoo women
TTITLE14=mama's bad luck child
TTITLE15=mean baby blues
TTITLE16=beale street sheik
TTITLE17=what is that smells like gravy
TTITLE18=every dog must have his day
TTITLE19=farefare you well
TTITLE20=stavin chain
TTITLE21=county jail blues
TTITLE22=gonna ride 74
EXTD=
EXTT0=
EXTT1=
EXTT2=
EXTT3=
EXTT4=
EXTT5=
EXTT6=
EXTT7=
EXTT8=
EXTT9=
EXTT10=
EXTT11=
EXTT12=
EXTT13=
EXTT14=
EXTT15=
EXTT16=
EXTT17=
EXTT18=
EXTT19=
EXTT20=
EXTT21=
EXTT22=
PLAYORDER=
